<svg aria-hidden="true" style="width:0;height:0;position:absolute;overflow:hidden" xmlns="http://www.w3.org/2000/svg"><defs><symbol id="icon-hend" viewBox="0 0 32 32"><path fill="none" stroke="#2468ff" style="stroke:var(--color1,#2468ff)" stroke-linejoin="round" stroke-linecap="round" stroke-width=".81" d="M23.668 19.063a3.367 3.367 0 0 0-3.363-3.369h-3.671l-.509-6.595a1.15 1.15 0 0 0-1.195-1.058 1.154 1.154 0 0 0-1.109 1.147l.01 13.244-2.341-2.05a2.48 2.48 0 0 0-3.199-.062s4.103 5.015 7.038 6.406"/><path fill="none" stroke="#2468ff" style="stroke:var(--color1,#2468ff)" stroke-linejoin="round" stroke-linecap="round" stroke-width=".81" d="M11.106 11.369V7.772a2.215 2.215 0 0 1 2.209-2.213h3.314a2.214 2.214 0 0 1 2.21 2.213v3.597"/><path fill="none" stroke="#2468ff" style="stroke:var(--color1,#2468ff)" stroke-width=".81" d="M21.463.39H10.536C4.932.39.39 4.933.39 10.536v10.927c0 5.604 4.543 10.146 10.146 10.146h10.927c5.604 0 10.146-4.543 10.146-10.146V10.536C31.609 4.932 27.066.39 21.463.39z"/></symbol><symbol id="icon-check" viewBox="0 0 32 32"><path fill="none" stroke="#2468ff" style="stroke:var(--color1,#2468ff)" stroke-linejoin="round" stroke-linecap="round" stroke-width=".81" d="m12.479 15.473 2.328 2.322 4.815-4.803"/><path fill="none" stroke="#2468ff" style="stroke:var(--color1,#2468ff)" stroke-linejoin="round" stroke-linecap="round" stroke-width=".81" d="M16.541 26.712c1.902-1.05 8.687-5.634 8.953-17.719a1.025 1.025 0 0 0-.679-.987c-2.573-.887-5.566-1.4-8.767-1.4h.003c-3.2 0-6.193.513-8.767 1.4-.415.143-.689.55-.679.987.267 12.086 7.052 16.67 8.953 17.719a1.005 1.005 0 0 0 .982 0h0z"/><path fill="none" stroke="#2468ff" style="stroke:var(--color1,#2468ff)" stroke-width=".81" d="M21.463.39H10.536C4.932.39.39 4.933.39 10.536v10.927c0 5.604 4.543 10.146 10.146 10.146h10.927c5.604 0 10.146-4.543 10.146-10.146V10.536C31.609 4.932 27.066.39 21.463.39z"/></symbol><symbol id="icon-square" viewBox="0 0 32 32"><path fill="none" stroke="#2468ff" style="stroke:var(--color1,#2468ff)" stroke-width=".81" d="M21.463.39H10.536C4.932.39.39 4.933.39 10.536v10.927c0 5.604 4.543 10.146 10.146 10.146h10.927c5.604 0 10.146-4.543 10.146-10.146V10.536C31.609 4.932 27.066.39 21.463.39z"/><path fill="none" stroke="#2468ff" style="stroke:var(--color1,#2468ff)" stroke-linejoin="round" stroke-linecap="round" stroke-width=".81" d="M8.973 14.46v-1.932c0-2.178 1.631-3.943 3.643-3.943h6.671c2.012 0 3.643 1.765 3.643 3.943v1.932M8.973 16.138v3.611c0 2.177 1.631 3.943 3.643 3.943h6.671c2.012 0 3.643-1.765 3.643-3.943v-3.611"/><path fill="none" stroke="#2468ff" style="stroke:var(--color1,#2468ff)" stroke-linejoin="round" stroke-linecap="round" stroke-width=".81" d="m10.738 12.55-1.765 1.91-1.765-1.91M21.165 18.048l1.765-1.91 1.765 1.91"/></symbol><symbol id="icon-one" viewBox="0 0 32 32"><path fill="#00b68c" style="fill:var(--color2,#00b68c)" d="M0 0h32v32H0V0z"/><path fill="#fff" style="fill:var(--color3,#fff)" d="M19.526 23.111h-2.26V8.127l-4.533 1.665V7.75l6.441-2.418h.352v17.78z"/></symbol><symbol id="icon-two" viewBox="0 0 32 32"><path fill="#999" style="fill:var(--color4,#999)" d="M0 0h32v32H0V0z"/><path fill="#fff" style="fill:var(--color3,#fff)" d="M21.953 23.111H10.359v-1.616l6.125-6.806c.907-1.029 1.531-1.863 1.872-2.504a4.19 4.19 0 0 0 .523-2.005c0-.924-.279-1.681-.838-2.273s-1.304-.887-2.236-.887c-1.118 0-1.989.32-2.613.96-.616.632-.924 1.515-.924 2.649H10.02c0-1.628.523-2.945 1.568-3.95 1.053-1.005 2.459-1.507 4.217-1.507 1.645 0 2.945.433 3.901 1.3.956.859 1.434 2.005 1.434 3.439 0 1.742-1.11 3.816-3.33 6.222l-4.74 5.141h8.884v1.835z"/></symbol><symbol id="icon-three" viewBox="0 0 32 32"><path fill="#999" style="fill:var(--color4,#999)" d="M0 0h32v32H0V0z"/><path fill="#fff" style="fill:var(--color3,#fff)" d="M13.628 13.17h1.689c1.061-.016 1.896-.296 2.503-.839s.911-1.276.911-2.2c0-2.074-1.033-3.111-3.099-3.111-.972 0-1.75.28-2.333.839-.575.551-.863 1.284-.863 2.2h-2.248c0-1.402.51-2.564 1.531-3.488 1.029-.932 2.333-1.398 3.913-1.398 1.669 0 2.978.442 3.925 1.325s1.422 2.111 1.422 3.682c0 .77-.251 1.515-.754 2.236-.494.721-1.171 1.26-2.029 1.616.972.308 1.722.818 2.248 1.531.535.713.802 1.584.802 2.613 0 1.588-.518 2.848-1.556 3.78s-2.386 1.398-4.047 1.398-3.014-.45-4.059-1.349c-1.037-.899-1.556-2.086-1.556-3.561h2.26c0 .932.304 1.677.911 2.236s1.422.839 2.443.839c1.086 0 1.916-.284 2.491-.851s.863-1.381.863-2.443c0-1.029-.316-1.819-.948-2.37s-1.543-.835-2.734-.851h-1.689v-1.835z"/></symbol><symbol id="icon-four" viewBox="0 0 32 32"><path fill="#999" style="fill:var(--color4,#999)" d="M0 0h32v32H0V0z"/><path fill="#fff" style="fill:var(--color3,#fff)" d="M18.073 17.168h2.455v1.835h-2.455v4.108h-2.26v-4.108H7.756v-1.325L15.68 5.416h2.394v11.752zm-7.766 0h5.505V8.491l-.267.486-5.238 8.191z"/></symbol><symbol id="icon-award" viewBox="0 0 32 32"><path stroke-linejoin="round" stroke-linecap="round" stroke-width="1.111" d="M28.805 11.703c0 6.173-5.941 11.177-13.273 11.177-7.329 0-13.271-5.004-13.271-11.177S8.203.526 15.532.526c7.331 0 13.273 5.004 13.273 11.177zM12.199 25.807l-3.382 5.597-2.026-5.157-6.166 1.694 3.381-5.595M18.866 25.807l3.383 5.597 2.026-5.157 6.166 1.694-3.381-5.595"/></symbol><symbol id="icon-man" viewBox="0 0 32 32"><path stroke-linejoin="round" stroke-linecap="round" stroke-width="1.111" d="M20.6 5.162a4.635 4.635 0 1 1-9.27 0 4.635 4.635 0 0 1 9.27 0zM.527 31.177h30.877M23.436 28.37v-5.836c0-.853-.692-1.544-1.544-1.544H10.038c-.853 0-1.543.691-1.543 1.544v5.836"/><path stroke-linejoin="round" stroke-linecap="round" stroke-width="1.111" d="M27.664 28.338a3.488 3.488 0 0 0 .607-3.566l-2.707-6.849a6.175 6.175 0 0 0-5.743-3.904h-7.712a6.174 6.174 0 0 0-5.743 3.904l-2.708 6.849a3.488 3.488 0 0 0 .608 3.566"/></symbol><symbol id="icon-car" viewBox="0 0 32 32"><path fill="none" stroke="#231f20" style="stroke:var(--color5,#231f20)" stroke-linejoin="round" stroke-linecap="round" stroke-width="1.111" d="M1.228 22.308V.77h22.274c.625 0 1.176.589 1.352 1.446l1.797 10.794 3.326 1.734c.447.354.725 1.028.725 1.758v5.806M15.965 22.308V4.873M27.594 26.41h3.809M11.352 26.41h9.226M.526 26.41h3.808"/><path fill="none" stroke="#231f20" style="stroke:var(--color5,#231f20)" stroke-linejoin="round" stroke-linecap="round" stroke-width="1.111" d="M11.353 26.41c0 2.832-1.571 5.128-3.508 5.128s-3.509-2.295-3.509-5.128c0-2.832 1.572-5.128 3.509-5.128s3.508 2.295 3.508 5.128z"/><path d="M9.16 26.41c0 1.061-.589 1.923-1.316 1.923s-1.316-.862-1.316-1.923.589-1.923 1.316-1.923 1.316.861 1.316 1.923z"/><path fill="none" stroke="#231f20" style="stroke:var(--color5,#231f20)" stroke-linejoin="round" stroke-linecap="round" stroke-width="1.111" d="M27.595 26.41c0 2.832-1.571 5.128-3.508 5.128-1.938 0-3.509-2.295-3.509-5.128s1.572-5.128 3.509-5.128c1.937 0 3.508 2.295 3.508 5.128z"/><path d="M25.402 26.41c0 1.061-.59 1.923-1.316 1.923s-1.316-.862-1.316-1.923.589-1.923 1.316-1.923 1.316.861 1.316 1.923z"/><path fill="none" stroke="#231f20" style="stroke:var(--color5,#231f20)" stroke-linejoin="round" stroke-linecap="round" stroke-width="1.111" d="M26.651 13.008h-6.812V4.87h5.457"/></symbol><symbol id="icon-cup" viewBox="0 0 32 32"><path stroke-linejoin="round" stroke-linecap="round" stroke-width="1.111" d="M4.035 3.68h-1.78C1.3 3.68.527 4.567.527 5.661v.003c0 3.949 1.687 7.591 4.309 9.968M27.895 3.68h1.781c.954 0 1.727.887 1.727 1.981v.003c0 3.949-1.687 7.591-4.309 9.968M8.26 30.185h15.411M15.965 21.297v8.889"/></symbol><symbol id="icon-facebook" viewBox="0 0 32 32"><path fill="#fff" style="fill:var(--color3,#fff)" d="M17.092 32H1.766A1.766 1.766 0 0 1 0 30.234V1.766C0 .79.791 0 1.766 0h28.468C31.209 0 32 .791 32 1.766v28.468c0 .975-.791 1.766-1.766 1.766H22.08V19.608h4.159l.623-4.829H22.08v-3.083c0-1.398.388-2.351 2.393-2.351l2.557-.001V5.025c-.442-.059-1.96-.19-3.727-.19-3.687 0-6.211 2.251-6.211 6.384v3.562h-4.17v4.829h4.17v12.392z"/></symbol><symbol id="icon-lin" viewBox="0 0 32 32"><path fill="#fff" style="fill:var(--color3,#fff)" d="M16 0c-4.345 0-4.89.018-6.597.096C7.7.174 6.537.444 5.519.84c-1.052.409-1.944.956-2.834 1.845S1.248 4.467.84 5.519C.444 6.537.174 7.7.096 9.403.018 11.11 0 11.654 0 16s.018 4.89.096 6.597c.078 1.703.348 2.866.744 3.884.409 1.052.956 1.944 1.845 2.834s1.782 1.437 2.834 1.846c1.018.395 2.181.666 3.884.744 1.707.078 2.251.096 6.597.096s4.89-.018 6.597-.096c1.703-.078 2.866-.348 3.884-.744 1.052-.409 1.944-.956 2.834-1.846s1.437-1.782 1.846-2.834c.395-1.018.666-2.181.744-3.884.078-1.707.096-2.252.096-6.597s-.018-4.89-.096-6.597c-.078-1.703-.348-2.866-.744-3.884-.409-1.052-.956-1.944-1.846-2.834S27.533 1.248 26.481.84C25.463.444 24.3.174 22.597.096 20.89.018 20.345 0 16 0zm0 2.883c4.272 0 4.778.016 6.465.093 1.56.071 2.407.332 2.971.551.747.29 1.28.637 1.84 1.197s.907 1.093 1.197 1.84c.219.564.48 1.411.551 2.971.077 1.687.093 2.193.093 6.465s-.016 4.778-.093 6.465c-.071 1.56-.332 2.407-.551 2.971-.29.747-.637 1.28-1.197 1.84s-1.093.907-1.84 1.197c-.564.219-1.411.48-2.971.551-1.687.077-2.193.093-6.465.093s-4.778-.016-6.465-.093c-1.56-.071-2.407-.332-2.971-.551-.747-.29-1.28-.637-1.84-1.197s-.907-1.093-1.197-1.84c-.219-.564-.48-1.411-.551-2.971-.077-1.687-.093-2.193-.093-6.465s.016-4.778.093-6.465c.071-1.56.332-2.407.551-2.971.29-.747.637-1.28 1.197-1.84s1.093-.907 1.84-1.197c.564-.219 1.411-.48 2.971-.551 1.687-.077 2.193-.093 6.465-.093zM7.784 16a8.216 8.216 0 1 0 16.432 0 8.216 8.216 0 0 0-16.432 0zM16 21.333a5.333 5.333 0 1 1 0-10.667 5.333 5.333 0 0 1 0 10.667zm8.541-11.954a1.92 1.92 0 1 0-.001-3.841 1.92 1.92 0 0 0 .001 3.841z"/></symbol><symbol id="icon-in" viewBox="0 0 32 32"><path fill="#fff" style="fill:var(--color3,#fff)" d="M3.767 8.311h-.045C1.464 8.311 0 6.8 0 4.885c0-1.952 1.507-3.431 3.81-3.431 2.301 0 3.716 1.475 3.761 3.426 0 1.915-1.46 3.431-3.804 3.431zM32 30.545h-7.072V20.318c0-2.677-1.106-4.504-3.539-4.504-1.861 0-2.895 1.233-3.377 2.422-.159.376-.156.881-.153 1.402l.001.213v10.694h-7.007s.09-18.116 0-19.762h7.007v3.101c.414-1.356 2.653-3.291 6.226-3.291 4.433 0 7.915 2.843 7.915 8.964v10.988zM7.044 10.783H.807v19.762h6.237V10.783z"/></symbol><symbol id="icon-p" viewBox="0 0 32 32"><path fill="#fff" style="fill:var(--color3,#fff)" d="M16.001 0C7.165 0 0 7.163 0 16.001c0 6.55 3.94 12.179 9.579 14.654-.045-1.116-.008-2.459.277-3.675.309-1.298 2.058-8.717 2.058-8.717s-.51-1.022-.51-2.533c0-2.371 1.375-4.141 3.086-4.141 1.454 0 2.158 1.093 2.158 2.403 0 1.462-.933 3.65-1.413 5.677-.401 1.699.85 3.082 2.525 3.082 3.031 0 5.073-3.893 5.073-8.507 0-3.505-2.361-6.13-6.657-6.13-4.852 0-7.876 3.618-7.876 7.66 0 1.396.41 2.378 1.054 3.138.297.352.337.491.229.894-.075.292-.252 1.003-.325 1.283-.107.404-.435.551-.8.401-2.237-.913-3.278-3.361-3.278-6.113 0-4.544 3.833-9.997 11.434-9.997 6.11 0 10.13 4.424 10.13 9.167 0 6.277-3.489 10.966-8.635 10.966-1.725 0-3.351-.933-3.908-1.993 0 0-.93 3.686-1.125 4.397-.339 1.232-1.003 2.467-1.611 3.426 1.439.425 2.96.657 4.535.657 8.836 0 15.999-7.163 15.999-15.999C31.999 7.163 24.836 0 16 0z"/></symbol><symbol id="icon-twitter" viewBox="0 0 32 32"><path fill="#fff" style="fill:var(--color3,#fff)" d="M32 5.824a12.816 12.816 0 0 1-3.77 1.059 6.715 6.715 0 0 0 2.887-3.723 12.932 12.932 0 0 1-4.172 1.631 6.474 6.474 0 0 0-4.791-2.124c-3.623 0-6.563 3.014-6.563 6.732 0 .528.056 1.04.169 1.533-5.456-.281-10.293-2.958-13.533-7.036a6.858 6.858 0 0 0-.888 3.388 6.777 6.777 0 0 0 2.921 5.603 6.445 6.445 0 0 1-2.975-.84v.083c0 3.263 2.263 5.984 5.269 6.601a6.451 6.451 0 0 1-2.966.118c.836 2.674 3.259 4.621 6.133 4.673a12.96 12.96 0 0 1-8.154 2.883c-.53 0-1.054-.031-1.566-.092a18.279 18.279 0 0 0 10.064 3.022c12.077 0 18.679-10.256 18.679-19.153 0-.293-.006-.586-.017-.873a13.479 13.479 0 0 0 3.274-3.484z"/></symbol><symbol id="icon-buld" viewBox="0 0 32 32"><path stroke-width=".405" d="M21.463.643H10.536C4.932.643.39 5.131.39 10.667v10.795c0 5.536 4.543 10.024 10.146 10.024h10.927c5.604 0 10.146-4.488 10.146-10.024V10.667c0-5.536-4.543-10.024-10.146-10.024z"/><path fill="none" stroke="#fff" style="stroke:var(--color3,#fff)" stroke-linejoin="round" stroke-linecap="round" stroke-width=".638" d="M12.594 21.257h6.492M13.522 22.876h4.638M17.232 24.495H14.45M19.06 19.637c0-.871.218-1.729.635-2.498l1.373-2.537c.008-.015.017-.029.024-.044l.009-.017h-.003a4.493 4.493 0 0 0 .437-1.929c0-2.778-2.549-5.03-5.694-5.03s-5.694 2.252-5.694 5.03c0 .684.157 1.335.437 1.929h-.002l.009.017c.007.015.016.03.025.045l1.372 2.536a5.24 5.24 0 0 1 .635 2.499"/></symbol><symbol id="icon-wifi" viewBox="0 0 32 32"><path fill="none" stroke="#fefefe" style="stroke:var(--color1,#fefefe)" stroke-width=".608" d="M10.537.39h10.927c5.604 0 10.146 4.543 10.146 10.146v10.927c0 5.603-4.543 10.146-10.146 10.146H10.537C4.933 31.609.391 27.066.391 21.463V10.536C.391 4.932 4.934.39 10.537.39z"/><path fill="none" stroke="#fefefe" style="stroke:var(--color1,#fefefe)" stroke-width=".608" d="M18.721 10.267a5.37 5.37 0 0 0-2.741-.748 5.37 5.37 0 0 0-2.725.738M20.725 8.408a8.018 8.018 0 0 0-4.756-1.553 8.017 8.017 0 0 0-4.718 1.525M18.035 24.754h-4.071a3.829 3.829 0 0 1-3.829-3.829v-4.071a3.829 3.829 0 0 1 3.829-3.829h4.071a3.83 3.83 0 0 1 3.829 3.829v4.071a3.829 3.829 0 0 1-3.829 3.829z"/><path fill="none" stroke="#fefefe" style="stroke:var(--color1,#fefefe)" stroke-width=".608" d="M14.287 18.89a1.714 1.714 0 1 1 3.428 0 1.714 1.714 0 0 1-3.428 0z"/></symbol><symbol id="icon-on" viewBox="0 0 32 32"><path fill="none" stroke="#fff" style="stroke:var(--color2,#fff)" stroke-width=".405" d="M21.463.643H10.536C4.932.643.39 5.131.39 10.667v10.795c0 5.536 4.543 10.024 10.146 10.024h10.927c5.604 0 10.146-4.488 10.146-10.024V10.667c0-5.536-4.543-10.024-10.146-10.024z"/><path fill="none" stroke="#fff" style="stroke:var(--color2,#fff)" stroke-linejoin="round" stroke-linecap="round" stroke-width=".638" d="M22.104 22.095c-3.36 3.32-8.809 3.32-12.169 0s-3.361-8.702 0-12.022c3.36-3.32 8.809-3.32 12.169 0s3.36 8.703 0 12.022z"/><path fill="none" stroke="#fff" style="stroke:var(--color2,#fff)" stroke-linejoin="round" stroke-linecap="round" stroke-width=".638" d="M18.627 20.205c-.342.342-.748.614-1.197.8a3.74 3.74 0 0 1-2.834.01 3.682 3.682 0 0 1-2.004-1.98 3.603 3.603 0 0 1 .01-2.8c.188-.443.464-.845.81-1.182a3.716 3.716 0 0 1 5.197.018c.689.68 1.077 1.602 1.08 2.564s-.378 1.886-1.062 2.571zM16.02 16.415v2.429M16.889 11.621a1.24 1.24 0 0 1-1.731-.008 1.205 1.205 0 0 1-.008-1.71 1.24 1.24 0 0 1 1.731.008 1.205 1.205 0 0 1 .008 1.71v0z"/></symbol></defs></svg>