<svg aria-hidden="true" style="width:0;height:0;position:absolute;overflow:hidden" xmlns="http://www.w3.org/2000/svg"><defs><symbol id="icon-hand" viewBox="0 0 32 32"><path fill="none" stroke="#2468ff" style="stroke:var(--color2,#2468ff)" stroke-linejoin="round" stroke-linecap="round" stroke-width=".81" d="M23.668 19.063a3.367 3.367 0 0 0-3.363-3.369h-3.671l-.509-6.595a1.15 1.15 0 0 0-1.195-1.058 1.154 1.154 0 0 0-1.109 1.147l.01 13.244-2.341-2.05a2.48 2.48 0 0 0-3.199-.062s4.103 5.015 7.038 6.406"/><path fill="none" stroke="#2468ff" style="stroke:var(--color2,#2468ff)" stroke-linejoin="round" stroke-linecap="round" stroke-width=".81" d="M11.106 11.369V7.772a2.215 2.215 0 0 1 2.209-2.213h3.314a2.214 2.214 0 0 1 2.21 2.213v3.597"/><path fill="none" stroke="#2468ff" style="stroke:var(--color2,#2468ff)" stroke-width=".81" d="M21.463.39H10.536C4.932.39.39 4.933.39 10.536v10.927c0 5.604 4.543 10.146 10.146 10.146h10.927c5.604 0 10.146-4.543 10.146-10.146V10.536C31.609 4.932 27.066.39 21.463.39z"/></symbol><symbol id="icon-security" viewBox="0 0 32 32"><path fill="none" stroke="#2468ff" style="stroke:var(--color2,#2468ff)" stroke-linejoin="round" stroke-linecap="round" stroke-width=".81" d="m12.479 15.473 2.328 2.322 4.815-4.803"/><path fill="none" stroke="#2468ff" style="stroke:var(--color2,#2468ff)" stroke-linejoin="round" stroke-linecap="round" stroke-width=".81" d="M16.541 26.712c1.902-1.05 8.687-5.634 8.953-17.719a1.025 1.025 0 0 0-.679-.987c-2.573-.887-5.566-1.4-8.767-1.4h.003c-3.2 0-6.193.513-8.767 1.4-.415.143-.689.55-.679.987.267 12.086 7.052 16.67 8.953 17.719a1.005 1.005 0 0 0 .982 0h0z"/><path fill="none" stroke="#2468ff" style="stroke:var(--color2,#2468ff)" stroke-width=".81" d="M21.463.39H10.536C4.932.39.39 4.933.39 10.536v10.927c0 5.604 4.543 10.146 10.146 10.146h10.927c5.604 0 10.146-4.543 10.146-10.146V10.536C31.609 4.932 27.066.39 21.463.39z"/></symbol><symbol id="icon-square" viewBox="0 0 32 32"><path fill="none" stroke="#2468ff" style="stroke:var(--color2,#2468ff)" stroke-width=".81" d="M21.463.39H10.536C4.932.39.39 4.933.39 10.536v10.927c0 5.604 4.543 10.146 10.146 10.146h10.927c5.604 0 10.146-4.543 10.146-10.146V10.536C31.609 4.932 27.066.39 21.463.39z"/><path fill="none" stroke="#2468ff" style="stroke:var(--color2,#2468ff)" stroke-linejoin="round" stroke-linecap="round" stroke-width=".81" d="M8.973 14.46v-1.932c0-2.178 1.631-3.943 3.643-3.943h6.671c2.012 0 3.643 1.765 3.643 3.943v1.932M8.973 16.138v3.611c0 2.177 1.631 3.943 3.643 3.943h6.671c2.012 0 3.643-1.765 3.643-3.943v-3.611"/><path fill="none" stroke="#2468ff" style="stroke:var(--color2,#2468ff)" stroke-linejoin="round" stroke-linecap="round" stroke-width=".81" d="m10.738 12.55-1.765 1.91-1.765-1.91M21.165 18.048l1.765-1.91 1.765 1.91"/></symbol><symbol id="icon-one" viewBox="0 0 32 32"><path d="M0 0h32v32H0V0z"/><path d="M19.526 23.111h-2.26V8.127l-4.533 1.665V7.75l6.441-2.418h.352v17.78z"/></symbol><symbol id="icon-two" viewBox="0 0 32 32"><path d="M0 0h32v32H0V0z"/><path d="M21.953 23.111H10.359v-1.616l6.125-6.806c.907-1.029 1.531-1.863 1.872-2.504a4.19 4.19 0 0 0 .523-2.005c0-.924-.279-1.681-.838-2.273s-1.304-.887-2.236-.887c-1.118 0-1.989.32-2.613.96-.616.632-.924 1.515-.924 2.649H10.02c0-1.628.523-2.945 1.568-3.95 1.053-1.005 2.459-1.507 4.217-1.507 1.645 0 2.945.433 3.901 1.3.956.859 1.434 2.005 1.434 3.439 0 1.742-1.11 3.816-3.33 6.222l-4.74 5.141h8.884v1.835z"/></symbol><symbol id="icon-three" viewBox="0 0 32 32"><path d="M0 0h32v32H0V0z"/><path d="M13.628 13.17h1.689c1.061-.016 1.896-.296 2.503-.839s.911-1.276.911-2.2c0-2.074-1.033-3.111-3.099-3.111-.972 0-1.75.28-2.333.839-.575.551-.863 1.284-.863 2.2h-2.248c0-1.402.51-2.564 1.531-3.488 1.029-.932 2.333-1.398 3.913-1.398 1.669 0 2.978.442 3.925 1.325s1.422 2.111 1.422 3.682c0 .77-.251 1.515-.754 2.236-.494.721-1.171 1.26-2.029 1.616.972.308 1.722.818 2.248 1.531.535.713.802 1.584.802 2.613 0 1.588-.518 2.848-1.556 3.78s-2.386 1.398-4.047 1.398-3.014-.45-4.059-1.349c-1.037-.899-1.556-2.086-1.556-3.561h2.26c0 .932.304 1.677.911 2.236s1.422.839 2.443.839c1.086 0 1.916-.284 2.491-.851s.863-1.381.863-2.443c0-1.029-.316-1.819-.948-2.37s-1.543-.835-2.734-.851h-1.689v-1.835z"/></symbol><symbol id="icon-four" viewBox="0 0 32 32"><path d="M0 0h32v32H0V0z"/><path d="M18.073 17.168h2.455v1.835h-2.455v4.108h-2.26v-4.108H7.756v-1.325L15.68 5.416h2.394v11.752zm-7.766 0h5.505V8.491l-.267.486-5.238 8.191z"/></symbol><symbol id="icon-award" viewBox="0 0 32 32"><path d="M28.805 11.703c0 6.173-5.941 11.177-13.273 11.177-7.329 0-13.271-5.004-13.271-11.177S8.203.526 15.532.526c7.331 0 13.273 5.004 13.273 11.177zM12.199 25.807l-3.382 5.597-2.026-5.157-6.166 1.694 3.381-5.595M18.866 25.807l3.383 5.597 2.026-5.157 6.166 1.694-3.381-5.595"/></symbol><symbol id="icon-man" viewBox="0 0 32 32"><path d="M20.6 5.162a4.635 4.635 0 1 1-9.27 0 4.635 4.635 0 0 1 9.27 0zM.527 31.177h30.877M23.436 28.37v-5.836c0-.853-.692-1.544-1.544-1.544H10.038c-.853 0-1.543.691-1.543 1.544v5.836"/><path d="M27.664 28.338a3.488 3.488 0 0 0 .607-3.566l-2.707-6.849a6.175 6.175 0 0 0-5.743-3.904h-7.712a6.174 6.174 0 0 0-5.743 3.904l-2.708 6.849a3.488 3.488 0 0 0 .608 3.566"/></symbol><symbol id="icon-car" viewBox="0 0 32 32"><path d="M1.228 22.308V.77h22.274c.625 0 1.176.589 1.352 1.446l1.797 10.794 3.326 1.734c.447.354.725 1.028.725 1.758v5.806M15.965 22.308V4.873M27.594 26.41h3.809M11.352 26.41h9.226M.526 26.41h3.808"/><path d="M11.353 26.41c0 2.832-1.571 5.128-3.508 5.128s-3.509-2.295-3.509-5.128c0-2.832 1.572-5.128 3.509-5.128s3.508 2.295 3.508 5.128z"/><path d="M9.16 26.41c0 1.061-.589 1.923-1.316 1.923s-1.316-.862-1.316-1.923.589-1.923 1.316-1.923 1.316.861 1.316 1.923zM27.595 26.41c0 2.832-1.571 5.128-3.508 5.128-1.938 0-3.509-2.295-3.509-5.128s1.572-5.128 3.509-5.128c1.937 0 3.508 2.295 3.508 5.128z"/><path d="M25.402 26.41c0 1.061-.59 1.923-1.316 1.923s-1.316-.862-1.316-1.923.589-1.923 1.316-1.923 1.316.861 1.316 1.923zM26.651 13.008h-6.812V4.87h5.457"/></symbol><symbol id="icon-cup" viewBox="0 0 32 32"><path d="M4.035 3.68h-1.78C1.3 3.68.527 4.567.527 5.661v.003c0 3.949 1.687 7.591 4.309 9.968M27.895 3.68h1.781c.954 0 1.727.887 1.727 1.981v.003c0 3.949-1.687 7.591-4.309 9.968M8.26 30.185h15.411M15.965 21.297v8.889"/></symbol><symbol id="icon-facebook" viewBox="0 0 32 32"><path d="M17.092 32H1.766A1.766 1.766 0 0 1 0 30.234V1.766C0 .79.791 0 1.766 0h28.468C31.209 0 32 .791 32 1.766v28.468c0 .975-.791 1.766-1.766 1.766H22.08V19.608h4.159l.623-4.829H22.08v-3.083c0-1.398.388-2.351 2.393-2.351l2.557-.001V5.025c-.442-.059-1.96-.19-3.727-.19-3.687 0-6.211 2.251-6.211 6.384v3.562h-4.17v4.829h4.17v12.392z"/></symbol><symbol id="icon-lin" viewBox="0 0 32 32"><path d="M16 0c-4.345 0-4.89.018-6.597.096C7.7.174 6.537.444 5.519.84c-1.052.409-1.944.956-2.834 1.845S1.248 4.467.84 5.519C.444 6.537.174 7.7.096 9.403.018 11.11 0 11.654 0 16s.018 4.89.096 6.597c.078 1.703.348 2.866.744 3.884.409 1.052.956 1.944 1.845 2.834s1.782 1.437 2.834 1.846c1.018.395 2.181.666 3.884.744 1.707.078 2.251.096 6.597.096s4.89-.018 6.597-.096c1.703-.078 2.866-.348 3.884-.744 1.052-.409 1.944-.956 2.834-1.846s1.437-1.782 1.846-2.834c.395-1.018.666-2.181.744-3.884.078-1.707.096-2.252.096-6.597s-.018-4.89-.096-6.597c-.078-1.703-.348-2.866-.744-3.884-.409-1.052-.956-1.944-1.846-2.834S27.533 1.248 26.481.84C25.463.444 24.3.174 22.597.096 20.89.018 20.345 0 16 0zm0 2.883c4.272 0 4.778.016 6.465.093 1.56.071 2.407.332 2.971.551.747.29 1.28.637 1.84 1.197s.907 1.093 1.197 1.84c.219.564.48 1.411.551 2.971.077 1.687.093 2.193.093 6.465s-.016 4.778-.093 6.465c-.071 1.56-.332 2.407-.551 2.971-.29.747-.637 1.28-1.197 1.84s-1.093.907-1.84 1.197c-.564.219-1.411.48-2.971.551-1.687.077-2.193.093-6.465.093s-4.778-.016-6.465-.093c-1.56-.071-2.407-.332-2.971-.551-.747-.29-1.28-.637-1.84-1.197s-.907-1.093-1.197-1.84c-.219-.564-.48-1.411-.551-2.971-.077-1.687-.093-2.193-.093-6.465s.016-4.778.093-6.465c.071-1.56.332-2.407.551-2.971.29-.747.637-1.28 1.197-1.84s1.093-.907 1.84-1.197c.564-.219 1.411-.48 2.971-.551 1.687-.077 2.193-.093 6.465-.093zM7.784 16a8.216 8.216 0 1 0 16.432 0 8.216 8.216 0 0 0-16.432 0zM16 21.333a5.333 5.333 0 1 1 0-10.667 5.333 5.333 0 0 1 0 10.667zm8.541-11.954a1.92 1.92 0 1 0-.001-3.841 1.92 1.92 0 0 0 .001 3.841z"/></symbol><symbol id="icon-in" viewBox="0 0 32 32"><path d="M3.767 8.311h-.045C1.464 8.311 0 6.8 0 4.885c0-1.952 1.507-3.431 3.81-3.431 2.301 0 3.716 1.475 3.761 3.426 0 1.915-1.46 3.431-3.804 3.431zM32 30.545h-7.072V20.318c0-2.677-1.106-4.504-3.539-4.504-1.861 0-2.895 1.233-3.377 2.422-.159.376-.156.881-.153 1.402l.001.213v10.694h-7.007s.09-18.116 0-19.762h7.007v3.101c.414-1.356 2.653-3.291 6.226-3.291 4.433 0 7.915 2.843 7.915 8.964v10.988zM7.044 10.783H.807v19.762h6.237V10.783z"/></symbol><symbol id="icon-p" viewBox="0 0 32 32"><path d="M16.001 0C7.165 0 0 7.163 0 16.001c0 6.55 3.94 12.179 9.579 14.654-.045-1.116-.008-2.459.277-3.675.309-1.298 2.058-8.717 2.058-8.717s-.51-1.022-.51-2.533c0-2.371 1.375-4.141 3.086-4.141 1.454 0 2.158 1.093 2.158 2.403 0 1.462-.933 3.65-1.413 5.677-.401 1.699.85 3.082 2.525 3.082 3.031 0 5.073-3.893 5.073-8.507 0-3.505-2.361-6.13-6.657-6.13-4.852 0-7.876 3.618-7.876 7.66 0 1.396.41 2.378 1.054 3.138.297.352.337.491.229.894-.075.292-.252 1.003-.325 1.283-.107.404-.435.551-.8.401-2.237-.913-3.278-3.361-3.278-6.113 0-4.544 3.833-9.997 11.434-9.997 6.11 0 10.13 4.424 10.13 9.167 0 6.277-3.489 10.966-8.635 10.966-1.725 0-3.351-.933-3.908-1.993 0 0-.93 3.686-1.125 4.397-.339 1.232-1.003 2.467-1.611 3.426 1.439.425 2.96.657 4.535.657 8.836 0 15.999-7.163 15.999-15.999C31.999 7.163 24.836 0 16 0z"/></symbol><symbol id="icon-twitter" viewBox="0 0 32 32"><path d="M32 5.824a12.816 12.816 0 0 1-3.77 1.059 6.715 6.715 0 0 0 2.887-3.723 12.932 12.932 0 0 1-4.172 1.631 6.474 6.474 0 0 0-4.791-2.124c-3.623 0-6.563 3.014-6.563 6.732 0 .528.056 1.04.169 1.533-5.456-.281-10.293-2.958-13.533-7.036a6.858 6.858 0 0 0-.888 3.388 6.777 6.777 0 0 0 2.921 5.603 6.445 6.445 0 0 1-2.975-.84v.083c0 3.263 2.263 5.984 5.269 6.601a6.451 6.451 0 0 1-2.966.118c.836 2.674 3.259 4.621 6.133 4.673a12.96 12.96 0 0 1-8.154 2.883c-.53 0-1.054-.031-1.566-.092a18.279 18.279 0 0 0 10.064 3.022c12.077 0 18.679-10.256 18.679-19.153 0-.293-.006-.586-.017-.873a13.479 13.479 0 0 0 3.274-3.484z"/></symbol><symbol id="icon-buld" viewBox="0 0 32 32"><path stroke-width=".405" d="M21.463.643H10.536C4.932.643.39 5.131.39 10.667v10.795c0 5.536 4.543 10.024 10.146 10.024h10.927c5.604 0 10.146-4.488 10.146-10.024V10.667c0-5.536-4.543-10.024-10.146-10.024z"/><path d="M12.594 21.257h6.492M13.522 22.876h4.638M17.232 24.495H14.45M19.06 19.637c0-.871.218-1.729.635-2.498l1.373-2.537c.008-.015.017-.029.024-.044l.009-.017h-.003a4.493 4.493 0 0 0 .437-1.929c0-2.778-2.549-5.03-5.694-5.03s-5.694 2.252-5.694 5.03c0 .684.157 1.335.437 1.929h-.002l.009.017c.007.015.016.03.025.045l1.372 2.536a5.24 5.24 0 0 1 .635 2.499"/></symbol><symbol id="icon-wifi" viewBox="0 0 32 32"><path d="M10.537.39h10.927c5.604 0 10.146 4.543 10.146 10.146v10.927c0 5.603-4.543 10.146-10.146 10.146H10.537C4.933 31.609.391 27.066.391 21.463V10.536C.391 4.932 4.934.39 10.537.39z"/><path d="M18.721 10.267a5.37 5.37 0 0 0-2.741-.748 5.37 5.37 0 0 0-2.725.738M20.725 8.408a8.018 8.018 0 0 0-4.756-1.553 8.017 8.017 0 0 0-4.718 1.525M18.035 24.754h-4.071a3.829 3.829 0 0 1-3.829-3.829v-4.071a3.829 3.829 0 0 1 3.829-3.829h4.071a3.83 3.83 0 0 1 3.829 3.829v4.071a3.829 3.829 0 0 1-3.829 3.829z"/><path d="M14.287 18.89a1.714 1.714 0 1 1 3.428 0 1.714 1.714 0 0 1-3.428 0z"/></symbol><symbol id="icon-on" viewBox="0 0 32 32"><path d="M21.463.643H10.536C4.932.643.39 5.131.39 10.667v10.795c0 5.536 4.543 10.024 10.146 10.024h10.927c5.604 0 10.146-4.488 10.146-10.024V10.667c0-5.536-4.543-10.024-10.146-10.024z"/><path d="M22.104 22.095c-3.36 3.32-8.809 3.32-12.169 0s-3.361-8.702 0-12.022c3.36-3.32 8.809-3.32 12.169 0s3.36 8.703 0 12.022z"/><path d="M18.627 20.205c-.342.342-.748.614-1.197.8a3.74 3.74 0 0 1-2.834.01 3.682 3.682 0 0 1-2.004-1.98 3.603 3.603 0 0 1 .01-2.8c.188-.443.464-.845.81-1.182a3.716 3.716 0 0 1 5.197.018c.689.68 1.077 1.602 1.08 2.564s-.378 1.886-1.062 2.571zM16.02 16.415v2.429M16.889 11.621a1.24 1.24 0 0 1-1.731-.008 1.205 1.205 0 0 1-.008-1.71 1.24 1.24 0 0 1 1.731.008 1.205 1.205 0 0 1 .008 1.71z"/></symbol><symbol id="icon-logo" viewBox="0 0 70 32"><path d="M25.845 30.311A9.658 9.658 0 0 1 20.359 32a9.88 9.88 0 0 1-6.698-2.573c-.143-.128 0-.298.148-.202a13.256 13.256 0 0 0 11.818.74c.254-.107.461.165.217.346z"/><path d="M26.464 29.602c-.191-.245-1.255-.117-1.737-.059-.143 0-.164-.107-.037-.202.852-.597 2.245-.426 2.404-.224s-.042 1.598-.837 2.275c-.122.101-.238.048-.185-.085.18-.453.577-1.46.392-1.705zm-1.699-4.496v-.586a.142.142 0 0 1 .042-.107.143.143 0 0 1 .107-.042h2.584a.145.145 0 0 1 .149.149v.501c0 .085-.069.192-.196.368l-1.345 1.934c.514-.03 1.026.08 1.483.32a.263.263 0 0 1 .137.224v.623c0 .085-.095.186-.191.133a2.965 2.965 0 0 0-2.742 0c-.09.048-.185-.048-.185-.133v-.575a.7.7 0 0 1 .095-.4l1.567-2.264h-1.355a.137.137 0 0 1-.104-.04c-.014-.013-.025-.03-.032-.047s-.011-.037-.011-.056zm5.136.026c-.582 0-.619.799-.619 1.295s0 1.561.614 1.561.641-.858.641-1.38a3.69 3.69 0 0 0-.122-1.066.49.49 0 0 0-.53-.394l.016-.016zm0-.836c1.17 0 1.806 1.018 1.806 2.302s-.699 2.232-1.806 2.232c-1.107 0-1.779-1.012-1.779-2.275s.635-2.259 1.779-2.259zm-6.413 4.438c-.028.017-.06.027-.093.027s-.065-.009-.093-.027a2.114 2.114 0 0 1-.455-.533 1.553 1.553 0 0 1-1.302.581 1.118 1.118 0 0 1-1.125-.761 1.14 1.14 0 0 1-.055-.481c-.008-.277.068-.55.218-.783s.368-.413.623-.517a5.39 5.39 0 0 1 1.488-.272 1.443 1.443 0 0 0-.095-.682.568.568 0 0 0-.445-.208.606.606 0 0 0-.635.469c0 .091-.079.16-.148.154l-.757-.059c-.019-.003-.037-.01-.053-.021s-.03-.024-.041-.04a.146.146 0 0 1-.022-.11c.175-.932 1.017-1.215 1.768-1.215.431-.016.854.124 1.191.394.381.362.344.847.344 1.369v1.241c.003.275.111.539.302.735a.15.15 0 0 1 0 .208l-.609.533-.005-.005zm-.794-1.94c.028.291-.023.584-.148.847a.645.645 0 0 1-.53.362c-.307 0-.482-.234-.482-.581 0-.677.604-.799 1.175-.799v.17h-.016zm-9.562 1.94c-.028.017-.06.027-.093.027s-.065-.009-.093-.027a2.114 2.114 0 0 1-.455-.533 1.578 1.578 0 0 1-1.303.581 1.125 1.125 0 0 1-1.165-1.22c-.009-.277.067-.551.217-.784s.369-.413.625-.517a5.39 5.39 0 0 1 1.488-.272 1.396 1.396 0 0 0-.101-.682.537.537 0 0 0-.44-.208.602.602 0 0 0-.635.469c0 .091-.079.16-.148.154l-.757-.08c-.019-.003-.037-.01-.053-.021s-.03-.024-.041-.04a.146.146 0 0 1-.022-.11c.175-.932 1.017-1.215 1.768-1.215.43-.017.851.123 1.186.394.386.362.349.847.349 1.369v1.241c-.002.27.094.532.27.735.014.013.025.03.033.047s.011.037.011.056a.138.138 0 0 1-.044.103l-.609.533.011-.005zm-.795-1.94c.028.291-.023.584-.148.847a.659.659 0 0 1-.529.362c-.302 0-.477-.234-.477-.581 0-.677.604-.799 1.175-.799v.17h-.021zm3.103-.356c0-.474 0-1.124.53-1.124s.482.666.482 1.124v2.163a.144.144 0 0 0 .138.144h.789a.14.14 0 0 0 .106-.04.145.145 0 0 0 .047-.104v-2.163a2.548 2.548 0 0 1 .074-.783.526.526 0 0 1 .471-.336.411.411 0 0 1 .466.352c.019.255.019.512 0 .767v2.163a.148.148 0 0 0 .143.144h.789a.14.14 0 0 0 .106-.04.145.145 0 0 0 .047-.104v-2.579a2.148 2.148 0 0 0-.201-1.279 1.12 1.12 0 0 0-.911-.448 1.123 1.123 0 0 0-1.096.757 1.064 1.064 0 0 0-1.022-.756c-.235-.01-.467.059-.658.196s-.333.334-.401.561v-.533c-.001-.039-.018-.075-.045-.102s-.065-.042-.103-.042h-.683a.137.137 0 0 0-.104.04c-.014.013-.025.03-.032.047s-.011.037-.011.056v4.065a.142.142 0 0 0 .042.107.143.143 0 0 0 .107.042h.81c.019 0 .038-.004.056-.011s.034-.019.047-.033a.146.146 0 0 0 .04-.106v-2.131l-.021-.016zm17.934 2.157a.142.142 0 0 1-.042.107.143.143 0 0 1-.107.042h-.789a.15.15 0 0 1-.148-.149V24.53c.001-.039.018-.075.045-.102s.065-.042.103-.042h.731c.034-.002.067.008.095.028s.046.05.054.083v.623c.055-.239.19-.452.383-.603s.432-.229.676-.223a1.052 1.052 0 0 1 .921.485c.174.398.245.835.206 1.268v2.568a.142.142 0 0 1-.148.127h-.763c-.034-.001-.067-.015-.093-.038s-.041-.055-.045-.09v-2.467c0-.826-.318-.847-.498-.847a.528.528 0 0 0-.456.32 1.845 1.845 0 0 0-.127.778v2.195zM2.61 28.734l-.064-.416a2.054 2.054 0 0 1-.63.378 1.864 1.864 0 0 1-.683.139 1.223 1.223 0 0 1-.9-.325 1.122 1.122 0 0 1-.339-.864 1.155 1.155 0 0 1 .413-.933 1.681 1.681 0 0 1 1.107-.346 4.13 4.13 0 0 1 1.001.139v-.533a.78.78 0 0 0-.196-.607.975.975 0 0 0-.662-.176 4.326 4.326 0 0 0-1.393.25v-.554c.22-.112.456-.191.699-.234.273-.058.552-.086.831-.085.394-.033.788.079 1.107.314a1.21 1.21 0 0 1 .36.959v2.893H2.61zm-1.191-.496a1.86 1.86 0 0 0 1.096-.41v-.81a3.464 3.464 0 0 0-.842-.107c-.593 0-.895.234-.895.693a.632.632 0 0 0 .169.469c.065.058.14.102.222.131s.168.04.255.034h-.005zm5.735.496v-2.707a.93.93 0 0 0-.175-.623.655.655 0 0 0-.53-.197 2.168 2.168 0 0 0-1.228.405v3.122h-.789v-4.049h.657l.079.448a2.601 2.601 0 0 1 1.588-.565 1.16 1.16 0 0 1 .879.309 1.21 1.21 0 0 1 .302.905v2.973l-.784-.021zm33.479-.155a2.264 2.264 0 0 1-1.059.24 1.858 1.858 0 0 1-1.429-.533 2.673 2.673 0 0 1 0-3.128 1.888 1.888 0 0 1 1.445-.533c.346-.002.688.075 1.001.224v.565a2.928 2.928 0 0 0-.879-.165 1.196 1.196 0 0 0-.959.341c-.22.309-.323.687-.291 1.066v.101c-.03.379.075.757.297 1.066a1.182 1.182 0 0 0 .937.341c.319-.006.635-.06.937-.16v.575zm2.468.272a1.805 1.805 0 0 1-1.414-.564 2.674 2.674 0 0 1 0-3.154 2.045 2.045 0 0 1 2.822 0 2.674 2.674 0 0 1 0 3.154 1.79 1.79 0 0 1-1.408.564zm0-.639c.741 0 1.117-.501 1.117-1.508s-.376-1.497-1.117-1.497-1.117.495-1.117 1.497c0 1.002.371 1.508 1.117 1.508zm8.022.522v-2.749a.948.948 0 0 0-.148-.586.58.58 0 0 0-.477-.192 2.215 2.215 0 0 0-1.165.357.842.842 0 0 1 0 .123v3.048h-.784v-2.749a.977.977 0 0 0-.148-.586.58.58 0 0 0-.477-.192 2.139 2.139 0 0 0-1.16.352v3.197h-.784v-4.049h.657l.079.41a2.634 2.634 0 0 1 1.483-.533.99.99 0 0 1 1.006.548 2.638 2.638 0 0 1 1.589-.565 1.096 1.096 0 0 1 .842.309c.205.254.302.58.27.906v2.973l-.784-.021zm1.943 1.641v-5.69h.657l.074.416a1.965 1.965 0 0 1 1.34-.533 1.45 1.45 0 0 1 1.212.533c.317.444.474.983.445 1.529a2.454 2.454 0 0 1-.471 1.598 1.513 1.513 0 0 1-1.244.592 1.752 1.752 0 0 1-1.228-.469v2.025h-.784zm1.848-5.168a1.762 1.762 0 0 0-1.059.368v2.222c.301.242.674.376 1.059.384.731 0 1.091-.495 1.091-1.481a1.885 1.885 0 0 0-.265-1.124.921.921 0 0 0-.826-.367zm5.21 3.527-.064-.416a2.054 2.054 0 0 1-.63.378 1.89 1.89 0 0 1-.688.139 1.234 1.234 0 0 1-.9-.325 1.146 1.146 0 0 1-.333-.863 1.15 1.15 0 0 1 .407-.933 1.682 1.682 0 0 1 1.112-.346 4.13 4.13 0 0 1 1.001.139v-.533a.79.79 0 0 0-.196-.607.975.975 0 0 0-.662-.176 4.33 4.33 0 0 0-1.398.25v-.554c.22-.112.456-.191.699-.234a4 4 0 0 1 .831-.085c.396-.032.79.08 1.112.314a1.206 1.206 0 0 1 .355.959v2.893h-.646zm-1.191-.496a1.86 1.86 0 0 0 1.096-.41v-.81a3.464 3.464 0 0 0-.842-.107c-.598 0-.895.234-.895.693a.619.619 0 0 0 .164.469.661.661 0 0 0 .477.165zm5.724.496v-2.707a.963.963 0 0 0-.169-.623.655.655 0 0 0-.53-.197 2.168 2.168 0 0 0-1.228.405v3.122h-.784v-4.049h.657l.079.448a2.595 2.595 0 0 1 1.588-.565 1.19 1.19 0 0 1 .884.309c.211.244.318.562.297.884v2.973h-.794zm5.2-4.049-1.832 4.758a1.874 1.874 0 0 1-.498.789 1.11 1.11 0 0 1-.736.24 1.695 1.695 0 0 1-.614-.112v-.565c.147.037.298.055.45.053a.68.68 0 0 0 .466-.149c.143-.15.247-.333.302-.533l.154-.405-1.621-4.087h.842l1.159 3.314 1.117-3.314h.81v.011zM15.737 8.322H2.283v-.075c.048-.476.158-.944.328-1.391a7.45 7.45 0 0 1 3.214-3.985 6.327 6.327 0 0 1 3.346-.826 6.73 6.73 0 0 1 2.568.495c.775.31 1.485.766 2.091 1.343a6.392 6.392 0 0 1 1.393 1.961 5.64 5.64 0 0 1 .53 2.398l-.016.08zM9.293 0a9.18 9.18 0 0 0-3.738.741 9.12 9.12 0 0 0-2.944 2.073A9.374 9.374 0 0 0 .678 5.91 10.885 10.885 0 0 0 0 9.799a11.448 11.448 0 0 0 .667 3.996 9.076 9.076 0 0 0 1.906 3.117 8.638 8.638 0 0 0 2.976 2.041c1.227.5 2.541.748 3.865.73a11.119 11.119 0 0 0 4.575-.932 8.195 8.195 0 0 0 3.447-3.016l-1.668-1.412a6.627 6.627 0 0 1-2.647 2.403 7.91 7.91 0 0 1-3.643.906 6.85 6.85 0 0 1-3.548-.826 7.213 7.213 0 0 1-2.192-1.982 7.094 7.094 0 0 1-1.128-2.36 8.34 8.34 0 0 1-.307-1.998v-.075h15.715V8.734a9.451 9.451 0 0 0-.582-3.197 8.526 8.526 0 0 0-1.668-2.813A8.325 8.325 0 0 0 13.057.742a8.977 8.977 0 0 0-3.765-.746v.005zm27.205 8.322H23.049v-.075c.048-.476.158-.944.328-1.391a7.529 7.529 0 0 1 1.107-2.083 7.357 7.357 0 0 1 2.118-1.897 6.285 6.285 0 0 1 3.346-.826 6.705 6.705 0 0 1 2.563.495 6.514 6.514 0 0 1 2.118 1.343 6.344 6.344 0 0 1 1.34 1.961c.348.751.529 1.569.529 2.398v.075zM30.059 0a9.216 9.216 0 0 0-3.744.741 9.115 9.115 0 0 0-2.933 2.067 9.29 9.29 0 0 0-1.933 3.096 10.76 10.76 0 0 0-.683 3.895 11.564 11.564 0 0 0 .662 3.996 9.17 9.17 0 0 0 1.911 3.117 8.647 8.647 0 0 0 2.976 2.041c1.227.5 2.541.748 3.865.73a11.119 11.119 0 0 0 4.575-.932 8.167 8.167 0 0 0 3.436-3.016l-1.668-1.412a6.568 6.568 0 0 1-2.674 2.403 7.91 7.91 0 0 1-3.643.906 6.85 6.85 0 0 1-3.548-.826 7.213 7.213 0 0 1-2.192-1.982 7 7 0 0 1-1.112-2.36 8.34 8.34 0 0 1-.307-1.998v-.075h15.737V8.734a9.597 9.597 0 0 0-.561-3.197 8.526 8.526 0 0 0-1.668-2.813A8.384 8.384 0 0 0 33.849.742a9.027 9.027 0 0 0-3.765-.746l-.026.005zm29.44 17.63a7.639 7.639 0 0 1-3.113-.618 7.268 7.268 0 0 1-2.377-1.673 7.122 7.122 0 0 1-1.493-2.472 9.171 9.171 0 0 1 0-6.053 7.227 7.227 0 0 1 1.493-2.478 7.275 7.275 0 0 1 2.377-1.668 8.152 8.152 0 0 1 6.227 0c.897.382 1.705.948 2.372 1.662s1.18 1.559 1.504 2.483a9.184 9.184 0 0 1 0 6.053 7.18 7.18 0 0 1-1.498 2.472 7.224 7.224 0 0 1-2.377 1.673 7.625 7.625 0 0 1-3.113.618zm0-17.63a10.501 10.501 0 0 0-3.939.741 8.887 8.887 0 0 0-3.098 2.041 9.459 9.459 0 0 0-2.012 3.117 10.54 10.54 0 0 0-.715 3.943 10.554 10.554 0 0 0 .725 3.953 9.459 9.459 0 0 0 2.012 3.117 9.046 9.046 0 0 0 3.087 2.041 10.51 10.51 0 0 0 3.945.73 10.366 10.366 0 0 0 3.929-.73c1.161-.459 2.216-1.154 3.098-2.042s1.575-1.948 2.032-3.116a11.138 11.138 0 0 0 0-7.907 9.366 9.366 0 0 0-2.033-3.117 9.198 9.198 0 0 0-3.103-2.03 10.366 10.366 0 0 0-3.929-.73V0zM41.513 19.191h2.282V8.983a9.113 9.113 0 0 1 .365-2.616 6.055 6.055 0 0 1 1.133-2.131 5.166 5.166 0 0 1 1.933-1.428 6.745 6.745 0 0 1 2.695-.533V.144c-2.648.053-4.739.874-6.184 2.43-2.377 2.552-2.224 6.26-2.224 6.298v10.32z"/></symbol><symbol id="icon-amazon" viewBox="0 0 105 32"><path fill="#f90" style="fill:var(--color1,#f90)" d="M64.653 24.561c-6.055 4.468-14.833 6.845-22.392 6.845-10.595 0-20.134-3.916-27.353-10.434-.567-.513-.061-1.211.62-.815 7.788 4.533 17.421 7.262 27.37 7.262 6.711 0 14.087-1.393 20.876-4.271 1.024-.435 1.883.674.88 1.415z"/><path fill="#f90" style="fill:var(--color1,#f90)" d="M67.172 21.684c-.775-.991-5.119-.469-7.071-.236-.59.071-.683-.445-.15-.819 3.466-2.435 9.146-1.731 9.806-.917.664.823-.174 6.516-3.423 9.233-.5.417-.976.195-.753-.356.73-1.827 2.366-5.912 1.591-6.904z"/><path fill="#221f1f" style="fill:var(--color2,#221f1f)" d="M60.238 3.431V1.065a.583.583 0 0 1 .6-.599L71.44.465c.338 0 .611.247.611.597v2.029c-.004.341-.29.785-.799 1.49l-5.491 7.841c2.038-.047 4.195.259 6.047 1.3.417.233.529.581.562.922v2.525c0 .346-.38.751-.781.541-3.263-1.71-7.593-1.897-11.201.02-.369.197-.754-.201-.754-.548v-2.399c0-.385.006-1.042.394-1.626l6.363-9.128-5.541-.001c-.338 0-.611-.242-.612-.595zM81.179.161c4.787 0 7.375 4.11 7.375 9.336 0 5.05-2.858 9.057-7.375 9.057-4.696 0-7.257-4.111-7.257-9.232 0-5.155 2.59-9.161 7.257-9.161zm.029 3.379c-2.379 0-2.529 3.239-2.529 5.26 0 2.02-.029 6.338 2.499 6.338 2.499 0 2.619-3.483 2.619-5.607 0-1.394-.06-3.066-.482-4.39-.361-1.149-1.084-1.601-2.108-1.601zM51.787 10.299v-.698c-2.332 0-4.797.5-4.797 3.247 0 1.397.724 2.339 1.961 2.339.904 0 1.72-.56 2.232-1.467.633-1.117.603-2.165.603-3.422zm3.253 7.865c-.212.191-.603.197-.762.074-1.101-.852-1.849-2.148-1.849-2.148-1.771 1.804-3.025 2.346-5.317 2.346-2.716 0-4.828-1.678-4.828-5.028 0-2.618 1.418-4.4 3.441-5.271 1.749-.77 4.194-.908 6.064-1.118 0 0 .157-2.021-.392-2.758-.425-.571-1.146-.838-1.81-.838-1.196-.005-2.352.646-2.582 1.898-.065.357-.329.659-.608.628l-3.088-.336a.568.568 0 0 1-.482-.674C43.546 1.147 46.97.001 50.041.001c1.568 0 3.62.418 4.858 1.607 1.568 1.467 1.418 3.42 1.418 5.551v5.024c0 1.512.627 2.175 1.217 2.989.205.295.252.642-.01.857a283.4 283.4 0 0 0-2.482 2.136zM9.504 10.299v-.698c-2.332 0-4.797.5-4.797 3.247 0 1.397.724 2.339 1.961 2.339.904 0 1.72-.56 2.232-1.467.633-1.117.603-2.165.603-3.422zm3.253 7.865c-.214.191-.603.197-.762.074-1.103-.852-1.849-2.148-1.849-2.148-1.771 1.804-3.025 2.346-5.317 2.346C2.113 18.436 0 16.758 0 13.408c0-2.618 1.418-4.4 3.439-5.271 1.75-.77 4.195-.908 6.065-1.118 0 0 .156-2.021-.392-2.758-.425-.571-1.146-.838-1.81-.838-1.197-.005-2.353.646-2.582 1.898-.066.357-.329.659-.608.628l-3.088-.336a.567.567 0 0 1-.482-.674C1.261 1.147 4.685.001 7.755.001c1.568 0 3.62.418 4.858 1.607 1.568 1.467 1.418 3.42 1.418 5.551v5.024c0 1.512.627 2.175 1.216 2.989.206.295.253.642-.01.857a294.99 294.99 0 0 0-2.481 2.136zM22.189 8.835c0-1.917-.09-4.564 2.227-4.564 2.288 0 1.987 2.717 1.987 4.564l.004 8.776c0 .317.256.575.579.594h3.222a.608.608 0 0 0 .622-.595V8.836c0-.941-.029-2.334.301-3.17s1.144-1.36 1.927-1.36c.932 0 1.656.314 1.897 1.428.15.663.09 2.404.09 3.101l.001 8.776c0 .317.254.575.579.594h3.221a.607.607 0 0 0 .622-.595l.004-10.446c0-1.778.21-3.798-.814-5.191C37.755.719 36.281.162 34.925.162c-1.897 0-3.672.976-4.456 3.066-.903-2.09-2.167-3.066-4.185-3.066-1.987 0-3.462.976-4.245 3.066h-.061V1.114a.603.603 0 0 0-.603-.603h-3.01a.602.602 0 0 0-.602.603v16.49c0 .332.268.602.602.602h3.221c.333 0 .603-.27.603-.602V8.836zM95.392 17.602c0 .333-.27.603-.603.603h-3.221a.603.603 0 0 1-.602-.603V1.112c0-.332.27-.603.602-.603h2.978c.35 0 .603.281.603.472v2.524h.062c.903-2.264 2.167-3.344 4.395-3.344 1.447 0 2.861.523 3.764 1.951.845 1.323.845 3.553.845 5.155v10.416a.614.614 0 0 1-.62.521h-3.234a.606.606 0 0 1-.573-.521l.005-10.003c0-3.347-1.282-3.445-2.021-3.445-.861 0-1.555.673-1.857 1.3-.45 1.011-.523 2.044-.523 3.16v8.906z"/></symbol><symbol id="icon-journal" viewBox="0 0 373 32"><path fill="#fff" style="fill:var(--color1,#fff)" d="M371.334 27.36c-1.009 0-2.018 1.008-2.018 2.016 0 1.26 1.009 2.016 2.018 2.016s2.018-1.008 2.018-2.016c0-1.259-.756-2.016-2.018-2.016zm-71.892 4.032h9.082v-.756l-1.009-.252c-1.009-.252-1.261-.755-1.261-2.016V16.275h2.017c1.262 0 2.018.252 2.018 3.024l.253 5.795c.252 5.039 1.765 6.55 4.288 6.55s3.279-1.763 3.279-4.283v-1.008H317.1v.755c0 1.764-.252 2.772-.756 2.772s-.505-.505-.756-2.521l-.253-4.031c-.252-5.291-1.009-7.055-5.045-7.811 3.785-1.008 6.054-3.779 6.054-7.558 0-5.04-4.036-7.559-7.82-7.559h-15.388v.756l.757.252c1.514.252 1.765 1.26 1.765 4.787v18.142c0 4.032-1.009 6.048-3.783 6.048-2.271 0-3.532-1.009-3.532-5.545V3.422c0-1.261.505-1.513 1.514-1.764l1.261-.252V.649h-9.333v.756l1.009.252c1.009.252 1.262.503 1.262 1.764v21.165c0 4.787 2.774 7.307 6.811 7.307 4.288 0 6.306-2.519 6.306-7.558V4.682c0-2.521.505-3.276 2.523-3.276 1.514 0 2.27.503 2.27 2.016v25.197c0 1.259-.505 1.763-1.261 2.016l-1.009.252v.755h-.253v-.252zm60.794-27.968c0-1.261.505-1.764 1.261-1.764l1.261-.252V.651h-9.332v.756l1.008.252c1.009.252 1.262.503 1.262 1.764v25.449c0 1.26-.505 1.763-1.766 1.763-1.513 0-1.765-.503-2.522-3.275L345.605.148h-1.765l-5.55 26.205c-.505 3.023-1.009 3.527-2.27 4.032l-.757.251v.757h6.307v-.757l-1.009-.252c-1.262-.252-1.766-1.008-1.009-4.284l3.279-16.629 3.532 17.89c.505 2.519.505 3.023-1.514 3.527l-1.009.252v.756h23.964V21.565h-.756c-.505 4.787-1.514 9.07-5.297 9.07h-1.766l.253-27.212zm-14.379 19.653v-1.26h-6.054l-.252 1.259h6.306zm-25.226-19.15v21.669c0 3.275 0 4.787-1.514 5.039l-.756.253v.755h6.559v-.755c-2.775-.505-2.775-1.513-2.775-4.788V5.44l-1.009-1.007 11.1 27.212h1.765V6.447c0-3.779 0-4.535 1.765-5.039l.505-.252V.399h-6.811v.757l.757.252c2.27.503 2.27 1.26 2.27 4.787v15.622l.505-.252L324.668.146h-6.306v.757l.505.252c.505.252 1.009 1.008 1.765 2.771zm-14.377-2.771h1.765c1.765 0 3.532 1.259 3.532 7.055 0 6.048-1.262 6.55-3.785 6.55h-1.513V1.156zm-30.271 14.362c0 12.85-1.009 14.866-3.532 14.866-2.27 0-3.279-1.763-3.279-14.613 0-12.347 1.009-14.363 3.279-14.363 2.523-.252 3.532 1.763 3.532 14.11zm5.045.252c0-8.566-2.774-15.621-8.324-15.621s-8.324 7.055-8.324 15.622c0 8.565 2.774 15.621 8.324 15.621 5.55.252 8.324-6.803 8.324-15.622zM261.604 3.424c0-1.261.253-1.764 1.262-1.764l1.009-.252V.651h-9.333v.756l1.009.252c1.009.252 1.514.503 1.514 1.764v21.92c0 3.024-.253 5.545-2.523 5.545-1.514 0-2.523-1.008-2.523-2.016.252-1.511 2.523-1.26 2.774-3.527.253-1.513-1.009-2.268-1.765-2.519-1.514-.253-3.027 1.007-3.027 3.275 0 3.024 2.018 5.795 5.297 5.795 3.785 0 6.559-2.519 6.559-7.307l-.253-21.165zm-151.098 0c0-1.261.505-1.764 1.261-1.764l1.262-.252V.651h-9.333v.756l1.009.252c1.009.252 1.261.503 1.261 1.764v25.449c0 1.26-.505 1.763-1.765 1.763-1.514 0-1.766-.503-2.523-3.275L95.875.148H94.11l-5.549 26.205c-.505 3.023-1.009 3.527-2.271 4.032l-.757.251v.757h6.308v-.757l-1.009-.252c-1.261-.252-1.765-1.008-1.009-4.284l3.28-16.629 3.531 17.89c.505 2.519.505 3.023-1.514 3.527l-1.009.252v.756h24.217V21.565h-.756c-.505 4.787-1.514 9.07-5.298 9.07h-1.765V3.423zM236.38 1.156h1.009c2.774 0 3.783 4.535 4.036 9.071h.756V-.104h-16.397v10.331h.757c.252-4.788 1.261-9.071 4.036-9.071h1.009v26.96c0 1.26-.505 1.764-1.262 2.016l-1.261.252v.756h9.585v-.756l-1.514-.252c-.756-.252-1.261-.503-1.261-1.763l.505-27.213zM215.695 15.77h1.514c2.018 0 2.523.757 3.027 5.796h.756V9.219h-.756c-.505 3.779-1.009 5.542-3.027 5.542h-1.514V1.407h3.027c3.532 0 4.288 4.285 4.793 9.072h.756V.147h-15.387v.755l1.009.253c1.009.252 1.261 1.008 1.261 2.016v25.197c0 1.259-.505 1.763-1.261 2.016l-1.009.251v.757h15.891V21.06h-.505c-.505 4.787-1.009 9.071-5.044 9.071h-3.027l-.505-14.362zm-16.901 0h1.514c2.018 0 2.523.757 3.027 5.796h.757V9.219h-.757c-.505 3.779-1.009 5.542-3.027 5.542h-1.514V1.407h3.027c3.532 0 4.288 4.537 4.793 9.072h.757V.147h-15.892v.755l1.514.253c1.009.252 1.262 1.008 1.262 2.016v25.197c0 1.259-.505 1.763-1.262 2.016l-1.009.251v.757h15.892V21.06h-.757c-.505 4.787-1.009 9.071-5.044 9.071h-3.027v-14.11h-.253v-.253zM180.127 1.156h1.262c1.765 0 3.532 1.259 3.532 7.055 0 5.795-1.262 6.55-3.785 6.55h-1.009V1.156zm-6.811 30.236h9.082v-.756l-1.009-.252c-1.009-.252-1.262-.755-1.262-2.016V16.275h1.766c1.261 0 2.018.503 2.018 3.024l.252 5.795c.253 5.039 1.765 6.55 4.288 6.55s3.28-1.763 3.28-4.283v-1.008h-1.009v.755c0 1.764-.253 2.772-.757 2.772s-.505-.505-.756-2.521l-.253-4.031c-.252-5.543-1.009-7.055-5.044-7.811 3.783-1.008 6.053-3.779 6.053-7.558 0-5.04-4.036-7.559-7.82-7.559h-8.576v.756l1.009.252c1.009.252 1.261.503 1.261 1.763v25.198c0 1.259-.505 1.763-1.261 2.016l-1.009.251v1.008h-.253v-.252zm-6.81-30.236h1.009c2.774 0 3.783 4.535 4.036 9.071h.756V-.104h-16.396v10.331h.756c.253-4.788 1.261-9.071 4.036-9.071h1.009v26.96c0 1.26-.505 1.764-1.262 2.016l-1.261.252v.756h9.585v-.756l-1.261-.252c-1.261-.252-1.261-1.26-1.261-2.016V1.156h.252zm-10.343 22.173c0-9.071-10.09-11.59-10.09-18.645 0-1.513.505-3.527 2.774-3.527 3.279 0 4.541 4.283 5.045 9.323h.756V.149h-.505c-.252 1.008-.505 1.511-1.261 1.511-1.009 0-1.514-1.511-4.036-1.511-3.783 0-6.306 3.275-6.306 7.307 0 7.559 10.09 10.835 10.09 18.142 0 3.275-1.514 5.039-3.532 5.039-3.026 0-5.044-3.527-5.549-9.323h-.757v10.331h.505c.505-1.511 1.009-1.511 1.514-1.511.757 0 1.766 1.764 4.288 1.764 3.532-.505 7.063-3.78 7.063-8.567zM126.398 3.424c0-1.261.505-1.764 1.261-1.764l1.262-.252V.651h-9.333v.756l1.008.252c1.009.252 1.262.503 1.262 1.764V28.62c0 1.259-.505 1.763-1.262 2.016l-1.008.252v.755h14.63V21.312h-.757c-.505 4.787-1.514 9.071-5.297 9.071h-1.765V3.424zM96.38 23.077v-1.26h-6.054l-.252 1.259h6.306zm-26.236 8.315h2.018L76.45 8.966h-.503l4.541 22.426h1.515l5.549-26.205c.505-2.771 1.009-3.779 2.018-4.032l.757-.252V.149H84.02v.755l1.009.253c1.261.252 1.765 1.007 1.009 4.283l-3.532 17.638h.505L79.48 4.433c-.253-1.764-.506-3.276 1.008-3.529l1.009-.252v-.755h-8.576V.65l.503.252c1.01.253 1.01.756 1.515 2.521l1.513 6.803-.252-4.032-3.027 16.378h.505L70.147 4.431c-.506-1.764-.506-3.276 1.008-3.529l.757-.252v-.755h-8.829V.65l.756.252c.757.253 1.262.505 1.765 3.024l4.541 27.465zM45.931 15.77h1.513c2.018 0 2.523.757 3.027 5.796h.757V9.219h-.757c-.505 3.779-1.009 5.542-3.027 5.542h-1.513V1.407h3.026c3.532 0 4.288 4.537 4.794 9.072h.756V.147H39.118v.755l1.009.253c1.009.252 1.262 1.008 1.262 2.016v25.197c0 1.259-.505 1.763-1.262 2.016l-1.009.251v.757h16.146V21.06h-.757c-.505 4.787-1.009 9.071-5.045 9.071h-3.026v-14.11h-.505v-.253zM17.425 31.392h9.081v-.756l-1.009-.252c-.757-.252-1.261-.755-1.261-2.016V16.023h6.811V28.37c0 1.259-.505 1.763-1.262 2.016l-1.009.251v.757h9.082v-.757l-1.009-.252c-1.009-.252-1.262-.755-1.262-2.016V3.172c0-1.259.506-1.763 1.262-1.763l1.009-.252V.4h-9.082v.757l1.262.252c.757.252 1.261.503 1.261 1.763v11.59h-6.811V3.171c0-1.259.505-1.511 1.262-1.763l1.008-.252V.399h-9.333v.757l1.01.252c1.008.252 1.261.503 1.261 1.763v25.198c0 1.259-.505 1.763-1.261 2.016l-1.01.251v.757zM10.613 1.156h1.009c2.775 0 3.785 4.535 4.036 9.071h.757V-.104H.018v10.331h1.009c.252-4.788 1.261-9.071 4.036-9.071h1.009v26.96c0 1.26-.505 1.764-1.262 2.016l-1.261.252v.756h9.585v-.756l-1.514-.252c-.757-.252-1.261-.503-1.261-1.763l.252-27.213z"/></symbol><symbol id="icon-icon-potential1" viewBox="0 0 32 32"><path d="M21.739.241H10.672C4.996.241.396 4.786.396 10.394v10.934c0 5.607 4.601 10.153 10.276 10.153h11.067c5.676 0 10.276-4.545 10.276-10.153V10.394c0-5.607-4.601-10.153-10.276-10.153zM12.756 21.119h6.576M13.695 22.759h4.697M17.453 24.399h-2.818"/><path d="M19.304 19.479c0-.883.221-1.751.643-2.53l1.39-2.569.025-.044.009-.017h-.003a4.558 4.558 0 0 0 .443-1.954c0-2.813-2.582-5.095-5.767-5.095s-5.767 2.281-5.767 5.095c0 .693.159 1.352.443 1.954h-.002l.009.017c.007.015.017.03.025.045l1.39 2.568c.422.778.643 1.648.643 2.531"/></symbol><symbol id="icon-icon-potential2" viewBox="0 0 32 32"><path d="M10.537.39h10.927c5.604 0 10.146 4.543 10.146 10.146v10.927c0 5.603-4.543 10.146-10.146 10.146H10.537C4.933 31.609.391 27.066.391 21.463V10.536C.391 4.932 4.934.39 10.537.39z"/><path d="M18.721 10.267a5.37 5.37 0 0 0-2.741-.748 5.37 5.37 0 0 0-2.725.738M20.725 8.408a8.018 8.018 0 0 0-4.756-1.553 8.017 8.017 0 0 0-4.718 1.525M18.035 24.754h-4.071a3.829 3.829 0 0 1-3.829-3.829v-4.071a3.829 3.829 0 0 1 3.829-3.829h4.071a3.83 3.83 0 0 1 3.829 3.829v4.071a3.829 3.829 0 0 1-3.829 3.829z"/><path d="M14.287 18.89a1.714 1.714 0 1 1 3.428 0 1.714 1.714 0 0 1-3.428 0z"/></symbol><symbol id="icon-icon-potential3" viewBox="0 0 32 32"><path d="M21.739.241H10.672C4.996.241.396 4.786.396 10.394v10.934c0 5.607 4.601 10.153 10.276 10.153h11.067c5.676 0 10.276-4.545 10.276-10.153V10.394c0-5.607-4.601-10.153-10.276-10.153z"/><path d="M22.388 21.968c-3.403 3.362-8.922 3.362-12.325 0s-3.404-8.814 0-12.177c3.403-3.363 8.922-3.363 12.325 0s3.403 8.814 0 12.177z"/><path d="M18.866 20.054a3.756 3.756 0 0 1-2.646 1.099 3.796 3.796 0 0 1-1.436-.278c-.456-.185-.869-.458-1.218-.802a3.68 3.68 0 0 1-1.094-2.622 3.655 3.655 0 0 1 1.112-2.614c.702-.684 1.65-1.066 2.636-1.063s1.931.392 2.628 1.081c.697.689 1.091 1.622 1.094 2.597s-.383 1.91-1.076 2.604zM16.225 16.215v2.46M17.106 11.36a1.257 1.257 0 0 1-1.753-.008 1.223 1.223 0 0 1-.008-1.732 1.257 1.257 0 0 1 1.753.008 1.223 1.223 0 0 1 .008 1.732z"/></symbol></defs></svg>