<svg aria-hidden="true" style="position: absolute; width: 0; height: 0; overflow: hidden;" version="1.1" xmlns="http://www.w3.org/2000/svg" xmlns:xlink="http://www.w3.org/1999/xlink">
<defs>
<symbol id="icon-hend" viewBox="0 0 32 32">
<path   d="M23.668 19.063c0-1.86-1.506-3.369-3.363-3.369h-3.671l-0.509-6.595c-0.024-0.296-0.162-0.572-0.385-0.769s-0.512-0.301-0.81-0.289-0.578 0.137-0.785 0.351c-0.207 0.214-0.323 0.499-0.324 0.796l0.010 13.244-2.341-2.050c-0.44-0.386-1.003-0.604-1.588-0.615s-1.156 0.184-1.611 0.553c0 0 4.103 5.015 7.038 6.406"></path>
<path  d="M11.106 11.369v-3.597c-0-0.586 0.232-1.149 0.646-1.564s0.976-0.648 1.563-0.649h3.314c0.29 0 0.578 0.058 0.846 0.169s0.512 0.274 0.717 0.48c0.205 0.205 0.368 0.449 0.479 0.718s0.168 0.556 0.168 0.846v3.597"></path>
<path  d="M21.463 0.39h-10.927c-5.604 0-10.146 4.543-10.146 10.146v10.927c0 5.604 4.543 10.146 10.146 10.146h10.927c5.604 0 10.146-4.543 10.146-10.146v-10.927c0-5.604-4.543-10.146-10.146-10.146z"></path>
</symbol>
<symbol id="icon-check" viewBox="0 0 32 32">
<path   d="M12.479 15.473l2.328 2.322 4.815-4.803"></path>
<path   d="M16.541 26.712c1.902-1.050 8.687-5.634 8.953-17.719 0.009-0.437-0.265-0.844-0.679-0.987-2.573-0.887-5.566-1.4-8.767-1.4h0.003c-3.2 0-6.193 0.513-8.767 1.4-0.415 0.143-0.689 0.55-0.679 0.987 0.267 12.086 7.052 16.67 8.953 17.719 0.15 0.084 0.319 0.128 0.491 0.128s0.341-0.044 0.491-0.128l-0 0z"></path>
<path   d="M21.463 0.39h-10.927c-5.604 0-10.146 4.543-10.146 10.146v10.927c0 5.604 4.543 10.146 10.146 10.146h10.927c5.604 0 10.146-4.543 10.146-10.146v-10.927c0-5.604-4.543-10.146-10.146-10.146z"></path>
</symbol>
<symbol id="icon-square" viewBox="0 0 32 32">
<path   d="M21.463 0.39h-10.927c-5.604 0-10.146 4.543-10.146 10.146v10.927c0 5.604 4.543 10.146 10.146 10.146h10.927c5.604 0 10.146-4.543 10.146-10.146v-10.927c0-5.604-4.543-10.146-10.146-10.146z"></path>
<path  d="M8.973 14.46v-1.932c0-2.178 1.631-3.943 3.643-3.943h6.671c2.012 0 3.643 1.765 3.643 3.943v1.932"></path>
<path   d="M8.973 16.138v3.611c0 2.177 1.631 3.943 3.643 3.943h6.671c2.012 0 3.643-1.765 3.643-3.943v-3.611"></path>
<path   d="M10.738 12.55l-1.765 1.91-1.765-1.91"></path>
<path   d="M21.165 18.048l1.765-1.91 1.765 1.91"></path>
</symbol>
<symbol id="icon-one" viewBox="0 0 32 32">
<path  d="M0 0h32v32h-32v-32z"></path>
<path  d="M19.526 23.111h-2.26v-14.984l-4.533 1.665v-2.042l6.441-2.418h0.352v17.78z"></path>
</symbol>
<symbol id="icon-two" viewBox="0 0 32 32">
<path  d="M0 0h32v32h-32v-32z"></path>
<path  d="M21.953 23.111h-11.594v-1.616l6.125-6.806c0.907-1.029 1.531-1.863 1.872-2.504 0.348-0.648 0.523-1.317 0.523-2.005 0-0.924-0.279-1.681-0.838-2.273s-1.304-0.887-2.236-0.887c-1.118 0-1.989 0.32-2.613 0.96-0.616 0.632-0.924 1.515-0.924 2.649h-2.248c0-1.628 0.523-2.945 1.568-3.95 1.053-1.005 2.459-1.507 4.217-1.507 1.645 0 2.945 0.433 3.901 1.3 0.956 0.859 1.434 2.005 1.434 3.439 0 1.742-1.11 3.816-3.33 6.222l-4.74 5.141h8.884v1.835z"></path>
</symbol>
<symbol id="icon-three" viewBox="0 0 32 32">
<path  d="M0 0h32v32h-32v-32z"></path>
<path  d="M13.628 13.17h1.689c1.061-0.016 1.896-0.296 2.503-0.839s0.911-1.276 0.911-2.2c0-2.074-1.033-3.111-3.099-3.111-0.972 0-1.75 0.28-2.333 0.839-0.575 0.551-0.863 1.284-0.863 2.2h-2.248c0-1.402 0.51-2.564 1.531-3.488 1.029-0.932 2.333-1.398 3.913-1.398 1.669 0 2.978 0.442 3.925 1.325s1.422 2.111 1.422 3.682c0 0.77-0.251 1.515-0.754 2.236-0.494 0.721-1.171 1.26-2.029 1.616 0.972 0.308 1.722 0.818 2.248 1.531 0.535 0.713 0.802 1.584 0.802 2.613 0 1.588-0.518 2.848-1.556 3.78s-2.386 1.398-4.047 1.398-3.014-0.45-4.059-1.349c-1.037-0.899-1.556-2.086-1.556-3.561h2.26c0 0.932 0.304 1.677 0.911 2.236s1.422 0.839 2.443 0.839c1.086 0 1.916-0.284 2.491-0.851s0.863-1.381 0.863-2.443c0-1.029-0.316-1.819-0.948-2.37s-1.543-0.835-2.734-0.851h-1.689v-1.835z"></path>
</symbol>
<symbol id="icon-four" viewBox="0 0 32 32">
<path  d="M0 0h32v32h-32v-32z"></path>
<path  d="M18.073 17.168h2.455v1.835h-2.455v4.108h-2.26v-4.108h-8.057v-1.325l7.924-12.262h2.394v11.752zM10.307 17.168h5.505v-8.677l-0.267 0.486-5.238 8.191z"></path>
</symbol>
<symbol id="icon-award" viewBox="0 0 32 32">
<path  d="M28.805 11.703c0 6.173-5.941 11.177-13.273 11.177-7.329 0-13.271-5.004-13.271-11.177s5.942-11.177 13.271-11.177c7.331 0 13.273 5.004 13.273 11.177z"></path>
<path  d="M12.199 25.807l-3.382 5.597-2.026-5.157-6.166 1.694 3.381-5.595"></path>
<path  d="M18.866 25.807l3.383 5.597 2.026-5.157 6.166 1.694-3.381-5.595"></path>
</symbol>
<symbol id="icon-man" viewBox="0 0 32 32">
<path  d="M20.6 5.162c0 2.56-2.075 4.635-4.635 4.635s-4.636-2.075-4.636-4.635c0-2.56 2.076-4.635 4.636-4.635s4.635 2.075 4.635 4.635z"></path>
<path  d="M0.527 31.177h30.877"></path>
<path  d="M23.436 28.37v-5.836c0-0.853-0.692-1.544-1.544-1.544h-11.854c-0.853 0-1.543 0.691-1.543 1.544v5.836"></path>
<path  d="M27.664 28.338c0.851-0.983 1.085-2.357 0.607-3.566l-2.707-6.849c-0.932-2.356-3.208-3.904-5.743-3.904h-7.712c-2.535 0-4.812 1.548-5.743 3.904l-2.708 6.849c-0.478 1.209-0.243 2.583 0.608 3.566"></path>
</symbol>
<symbol id="icon-car" viewBox="0 0 32 32">
<path  d="M1.228 22.308v-21.538h22.274c0.625 0 1.176 0.589 1.352 1.446l1.797 10.794 3.326 1.734c0.447 0.354 0.725 1.028 0.725 1.758v5.806"></path>
<path  d="M15.965 22.308v-17.435"></path>
<path   d="M27.594 26.41h3.809"></path>
<path   d="M11.352 26.41h9.226"></path>
<path  d="M0.526 26.41h3.808"></path>
<path  d="M11.353 26.41c0 2.832-1.571 5.128-3.508 5.128s-3.509-2.295-3.509-5.128c0-2.832 1.572-5.128 3.509-5.128s3.508 2.295 3.508 5.128z"></path>
<path d="M9.16 26.41c0 1.061-0.589 1.923-1.316 1.923s-1.316-0.862-1.316-1.923c0-1.061 0.589-1.923 1.316-1.923s1.316 0.861 1.316 1.923z"></path>
<path  d="M27.595 26.41c0 2.832-1.571 5.128-3.508 5.128-1.938 0-3.509-2.295-3.509-5.128s1.572-5.128 3.509-5.128c1.937 0 3.508 2.295 3.508 5.128z"></path>
<path d="M25.402 26.41c0 1.061-0.59 1.923-1.316 1.923s-1.316-0.862-1.316-1.923c0-1.061 0.589-1.923 1.316-1.923s1.316 0.861 1.316 1.923z"></path>
<path   d="M26.651 13.008h-6.812v-8.138h5.457"></path>
</symbol>
<symbol id="icon-cup" viewBox="0 0 32 32">
<path  d="M4.035 3.68h-1.78c-0.955 0-1.728 0.887-1.728 1.981v0.003c0 3.949 1.687 7.591 4.309 9.968"></path>
<path  d="M27.895 3.68h1.781c0.954 0 1.727 0.887 1.727 1.981v0.003c0 3.949-1.687 7.591-4.309 9.968"></path>
<path  d="M8.26 30.185h15.411"></path>
<path  d="M15.965 21.297v8.889"></path>
</symbol>
<symbol id="icon-facebook" viewBox="0 0 32 32">
<path  d="M17.092 32h-15.326c-0.976 0-1.766-0.791-1.766-1.766v-28.468c0-0.976 0.791-1.766 1.766-1.766h28.468c0.975 0 1.766 0.791 1.766 1.766v28.468c0 0.975-0.791 1.766-1.766 1.766h-8.154v-12.392h4.159l0.623-4.829h-4.782v-3.083c0-1.398 0.388-2.351 2.393-2.351l2.557-0.001v-4.319c-0.442-0.059-1.96-0.19-3.727-0.19-3.687 0-6.211 2.251-6.211 6.384v3.562h-4.17v4.829h4.17v12.392z"></path>
</symbol>
<symbol id="icon-lin" viewBox="0 0 32 32">
<path  d="M16 0c-4.345 0-4.89 0.018-6.597 0.096-1.703 0.078-2.866 0.348-3.884 0.744-1.052 0.409-1.944 0.956-2.834 1.845s-1.437 1.782-1.845 2.834c-0.396 1.018-0.666 2.181-0.744 3.884-0.078 1.707-0.096 2.251-0.096 6.597s0.018 4.89 0.096 6.597c0.078 1.703 0.348 2.866 0.744 3.884 0.409 1.052 0.956 1.944 1.845 2.834s1.782 1.437 2.834 1.846c1.018 0.395 2.181 0.666 3.884 0.744 1.707 0.078 2.251 0.096 6.597 0.096s4.89-0.018 6.597-0.096c1.703-0.078 2.866-0.348 3.884-0.744 1.052-0.409 1.944-0.956 2.834-1.846s1.437-1.782 1.846-2.834c0.395-1.018 0.666-2.181 0.744-3.884 0.078-1.707 0.096-2.252 0.096-6.597s-0.018-4.89-0.096-6.597c-0.078-1.703-0.348-2.866-0.744-3.884-0.409-1.052-0.956-1.944-1.846-2.834s-1.782-1.437-2.834-1.845c-1.018-0.396-2.181-0.666-3.884-0.744-1.707-0.078-2.252-0.096-6.597-0.096zM16 2.883c4.272 0 4.778 0.016 6.465 0.093 1.56 0.071 2.407 0.332 2.971 0.551 0.747 0.29 1.28 0.637 1.84 1.197s0.907 1.093 1.197 1.84c0.219 0.564 0.48 1.411 0.551 2.971 0.077 1.687 0.093 2.193 0.093 6.465s-0.016 4.778-0.093 6.465c-0.071 1.56-0.332 2.407-0.551 2.971-0.29 0.747-0.637 1.28-1.197 1.84s-1.093 0.907-1.84 1.197c-0.564 0.219-1.411 0.48-2.971 0.551-1.687 0.077-2.193 0.093-6.465 0.093s-4.778-0.016-6.465-0.093c-1.56-0.071-2.407-0.332-2.971-0.551-0.747-0.29-1.28-0.637-1.84-1.197s-0.907-1.093-1.197-1.84c-0.219-0.564-0.48-1.411-0.551-2.971-0.077-1.687-0.093-2.193-0.093-6.465s0.016-4.778 0.093-6.465c0.071-1.56 0.332-2.407 0.551-2.971 0.29-0.747 0.637-1.28 1.197-1.84s1.093-0.907 1.84-1.197c0.564-0.219 1.411-0.48 2.971-0.551 1.687-0.077 2.193-0.093 6.465-0.093zM7.784 16c0 4.538 3.679 8.216 8.216 8.216s8.216-3.678 8.216-8.216c0-4.538-3.678-8.216-8.216-8.216s-8.216 3.678-8.216 8.216zM16 21.333c-2.945 0-5.333-2.388-5.333-5.333s2.388-5.333 5.333-5.333c2.945 0 5.333 2.388 5.333 5.333s-2.388 5.333-5.333 5.333zM24.541 9.379c1.060 0 1.92-0.86 1.92-1.92s-0.86-1.92-1.92-1.92c-1.060 0-1.92 0.86-1.92 1.92s0.86 1.92 1.92 1.92z"></path>
</symbol>
<symbol id="icon-in" viewBox="0 0 32 32">
<path  d="M3.767 8.311h-0.045c-2.258 0-3.722-1.511-3.722-3.426 0-1.952 1.507-3.431 3.81-3.431 2.301 0 3.716 1.475 3.761 3.426 0 1.915-1.46 3.431-3.804 3.431zM32 30.545h-7.072v-10.227c0-2.677-1.106-4.504-3.539-4.504-1.861 0-2.895 1.233-3.377 2.422-0.159 0.376-0.156 0.881-0.153 1.402v0c0 0.071 0.001 0.142 0.001 0.213v10.694h-7.007c0 0 0.090-18.116 0-19.762h7.007v3.101c0.414-1.356 2.653-3.291 6.226-3.291 4.433 0 7.915 2.843 7.915 8.964v10.988zM7.044 10.783h-6.237v19.762h6.237v-19.762z"></path>
</symbol>
<symbol id="icon-p" viewBox="0 0 32 32">
<path  d="M16.001 0c-8.836 0-16.001 7.163-16.001 16.001 0 6.55 3.94 12.179 9.579 14.654-0.045-1.116-0.008-2.459 0.277-3.675 0.309-1.298 2.058-8.717 2.058-8.717s-0.51-1.022-0.51-2.533c0-2.371 1.375-4.141 3.086-4.141 1.454 0 2.158 1.093 2.158 2.403 0 1.462-0.933 3.65-1.413 5.677-0.401 1.699 0.85 3.082 2.525 3.082 3.031 0 5.073-3.893 5.073-8.507 0-3.505-2.361-6.13-6.657-6.13-4.852 0-7.876 3.618-7.876 7.66 0 1.396 0.41 2.378 1.054 3.138 0.297 0.352 0.337 0.491 0.229 0.894-0.075 0.292-0.252 1.003-0.325 1.283-0.107 0.404-0.435 0.551-0.8 0.401-2.237-0.913-3.278-3.361-3.278-6.113 0-4.544 3.833-9.997 11.434-9.997 6.11 0 10.13 4.424 10.13 9.167 0 6.277-3.489 10.966-8.635 10.966-1.725 0-3.351-0.933-3.908-1.993 0 0-0.93 3.686-1.125 4.397-0.339 1.232-1.003 2.467-1.611 3.426 1.439 0.425 2.96 0.657 4.535 0.657 8.836 0 15.999-7.163 15.999-15.999 0-8.838-7.163-16.001-15.999-16.001z"></path>
</symbol>
<symbol id="icon-twitter" viewBox="0 0 32 32">
<path  d="M32 5.824c-1.176 0.535-2.442 0.898-3.77 1.059 1.356-0.832 2.397-2.151 2.887-3.723-1.27 0.77-2.673 1.331-4.172 1.631-1.195-1.308-2.902-2.124-4.791-2.124-3.623 0-6.563 3.014-6.563 6.732 0 0.528 0.056 1.040 0.169 1.533-5.456-0.281-10.293-2.958-13.533-7.036-0.565 0.998-0.888 2.155-0.888 3.388 0 2.334 1.159 4.395 2.921 5.603-1.074-0.033-2.089-0.339-2.975-0.84v0.083c0 3.263 2.263 5.984 5.269 6.601-0.55 0.158-1.131 0.237-1.73 0.237-0.423 0-0.836-0.041-1.236-0.119 0.836 2.674 3.259 4.621 6.133 4.673-2.246 1.807-5.079 2.883-8.154 2.883-0.53 0-1.054-0.031-1.566-0.092 2.906 1.907 6.358 3.022 10.064 3.022 12.077 0 18.679-10.256 18.679-19.153 0-0.293-0.006-0.586-0.017-0.873 1.283-0.95 2.397-2.134 3.274-3.484z"></path>
</symbol>
<symbol id="icon-buld" viewBox="0 0 32 32">
<path stroke-linejoin="miter" stroke-linecap="butt" stroke-miterlimit="4" stroke-width="0.4051" d="M21.463 0.643h-10.927c-5.604 0-10.146 4.488-10.146 10.024v10.795c0 5.536 4.543 10.024 10.146 10.024h10.927c5.604 0 10.146-4.488 10.146-10.024v-10.795c0-5.536-4.543-10.024-10.146-10.024z"></path>
<path  d="M12.594 21.257h6.492"></path>
<path  d="M13.522 22.876h4.638"></path>
<path  d="M17.232 24.495h-2.782"></path>
<path  d="M19.060 19.637c0-0.871 0.218-1.729 0.635-2.498l1.373-2.537c0.008-0.015 0.017-0.029 0.024-0.044l0.009-0.017h-0.003c0.287-0.604 0.437-1.262 0.437-1.929 0-2.778-2.549-5.030-5.694-5.030s-5.694 2.252-5.694 5.030c0 0.684 0.157 1.335 0.437 1.929h-0.002l0.009 0.017c0.007 0.015 0.016 0.030 0.025 0.045l1.372 2.536c0.417 0.769 0.635 1.627 0.635 2.499"></path>
</symbol>
<symbol id="icon-wifi" viewBox="0 0 32 32">
<path   d="M10.537 0.39h10.927c5.604 0 10.146 4.543 10.146 10.146v10.927c0 5.603-4.543 10.146-10.146 10.146h-10.927c-5.604 0-10.146-4.543-10.146-10.146v-10.927c0-5.604 4.543-10.146 10.146-10.146z"></path>
<path   d="M18.721 10.267c-0.804-0.475-1.74-0.748-2.741-0.748-0.994 0-1.925 0.269-2.725 0.738"></path>
<path   d="M20.725 8.408c-1.333-0.977-2.978-1.553-4.756-1.553-1.762 0-3.392 0.565-4.718 1.525"></path>
<path  d="M18.035 24.754h-4.071c-2.115 0-3.829-1.714-3.829-3.829v-4.071c0-2.115 1.714-3.829 3.829-3.829h4.071c2.115 0 3.829 1.715 3.829 3.829v4.071c0 2.115-1.714 3.829-3.829 3.829z"></path>
<path  d="M14.287 18.89c0-0.946 0.767-1.714 1.713-1.714s1.713 0.767 1.713 1.714c0 0.946-0.767 1.714-1.713 1.714s-1.713-0.767-1.713-1.714z"></path>
</symbol>
<symbol id="icon-on" viewBox="0 0 32 32">
<path  d="M21.463 0.643h-10.927c-5.604 0-10.146 4.488-10.146 10.024v10.795c0 5.536 4.543 10.024 10.146 10.024h10.927c5.604 0 10.146-4.488 10.146-10.024v-10.795c0-5.536-4.543-10.024-10.146-10.024z"></path>
<path   d="M22.104 22.095c-3.36 3.32-8.809 3.32-12.169 0s-3.361-8.702 0-12.022c3.36-3.32 8.809-3.32 12.169 0s3.36 8.703 0 12.022z"></path>
<path  d="M18.627 20.205c-0.342 0.342-0.748 0.614-1.197 0.8s-0.93 0.283-1.416 0.285-0.968-0.092-1.418-0.275c-0.45-0.183-0.858-0.452-1.202-0.792s-0.616-0.744-0.802-1.188c-0.185-0.444-0.28-0.92-0.278-1.401s0.1-0.956 0.288-1.399c0.188-0.443 0.464-0.845 0.81-1.182 0.693-0.675 1.629-1.053 2.602-1.049s1.906 0.387 2.595 1.067c0.689 0.68 1.077 1.602 1.080 2.564s-0.378 1.886-1.062 2.571z"></path>
<path  d="M16.020 16.415v2.429"></path>
<path  d="M16.889 11.621c-0.231 0.224-0.543 0.349-0.867 0.348s-0.635-0.129-0.864-0.356c-0.229-0.226-0.359-0.533-0.36-0.853s0.125-0.628 0.352-0.857c0.231-0.224 0.543-0.349 0.867-0.348s0.635 0.129 0.864 0.356c0.229 0.226 0.359 0.533 0.36 0.853s-0.125 0.628-0.352 0.857v0z"></path>
</symbol>
</defs>
</svg>
